<?xml version="1.0" encoding="UTF-8" standalone="no"?>
<!-- Created with Inkscape (http://www.inkscape.org/) -->

<svg
   xmlns:dc="http://purl.org/dc/elements/1.1/"
   xmlns:cc="http://creativecommons.org/ns#"
   xmlns:rdf="http://www.w3.org/1999/02/22-rdf-syntax-ns#"
   xmlns:svg="http://www.w3.org/2000/svg"
   xmlns="http://www.w3.org/2000/svg"
   xmlns:sodipodi="http://sodipodi.sourceforge.net/DTD/sodipodi-0.dtd"
   xmlns:inkscape="http://www.inkscape.org/namespaces/inkscape"
   width="32"
   height="32"
   viewBox="0 0 32 32.000001"
   id="svg4244"
   version="1.1"
   inkscape:version="0.91 r13725"
   sodipodi:docname="4.svg">
  <defs
     id="defs4246" />
  <sodipodi:namedview
     id="base"
     pagecolor="#ffffff"
     bordercolor="#666666"
     borderopacity="1.0"
     inkscape:pageopacity="0.0"
     inkscape:pageshadow="2"
     inkscape:zoom="5.6"
     inkscape:cx="-1.2021708"
     inkscape:cy="-17.905317"
     inkscape:document-units="px"
     inkscape:current-layer="layer1"
     showgrid="true"
     units="px"
     inkscape:window-width="1366"
     inkscape:window-height="705"
     inkscape:window-x="-8"
     inkscape:window-y="-8"
     inkscape:window-maximized="1"
     inkscape:snap-bbox="true"
     inkscape:bbox-paths="true"
     inkscape:bbox-nodes="true"
     inkscape:snap-bbox-edge-midpoints="true"
     inkscape:snap-bbox-midpoints="true">
    <inkscape:grid
       type="xygrid"
       id="grid4252" />
  </sodipodi:namedview>
  <metadata
     id="metadata4249">
    <rdf:RDF>
      <cc:Work
         rdf:about="">
        <dc:format>image/svg+xml</dc:format>
        <dc:type
           rdf:resource="http://purl.org/dc/dcmitype/StillImage" />
        <dc:title></dc:title>
      </cc:Work>
    </rdf:RDF>
  </metadata>
  <g
     inkscape:label="Layer 1"
     inkscape:groupmode="layer"
     id="layer1"
     transform="translate(0,-1020.3622)">
    <g
       id="g5124">
      <path
         style="fill:#fda816;fill-opacity:1;stroke:none;stroke-width:0.5;stroke-linecap:round;stroke-linejoin:round;stroke-opacity:1"
         d="m 8.00262,1038.5921 c -3,0 -4.99476,-5.7999 -4.99476,-8.035 0.0239,-0.5063 0.12468,-1.2036 0.29629,-1.6751 0.34321,-0.943 0.96966,-1.7828 1.83059,-2.3857 0.86093,-0.6028 1.86441,-0.9043 2.86788,-0.9043 1.00348,0 2.00695,0.3015 2.86788,0.9043 0.86093,0.6029 1.48738,1.4427 1.83059,2.3857 0.1716,0.4715 0.2724,1.1688 0.29629,1.6751 0,2.2351 -1.99476,8.035 -4.99476,8.035 z"
         id="path4828"
         inkscape:connector-curvature="0"
         sodipodi:nodetypes="ccssssscc" />
      <path
         id="path4830"
         d="m 9.5026169,-1039.592 a 1.5,1.5 0 0 1 -0.75,1.299 1.5,1.5 0 0 1 -1.5000001,0 1.5,1.5 0 0 1 -0.7499999,-1.299 l 1.5,0 z"
         style="fill:#fda816;fill-opacity:1;stroke:none;stroke-width:0.5;stroke-linecap:round;stroke-linejoin:round;stroke-opacity:1"
         transform="scale(1,-1)" />
      <path
         inkscape:connector-curvature="0"
         id="path4832"
         d="m 6.5039062,1037.5918 a 0.50005,0.50005 0 0 0 0,1 c 0.3588276,0 1.0763153,0.4147 1.4902344,1.1934 0.4139191,0.7786 0.5701042,1.8624 -0.015625,3.166 -0.6375001,1.4188 -0.9982953,2.0505 -1.2304687,2.6015 -0.2321735,0.5511 -0.3007813,1.0217 -0.3007813,1.8555 0,1.0317 0.6093509,1.9694 1.171875,2.6914 0.5625241,0.7221 1.125,1.2285 1.125,1.2285 a 0.50005,0.50005 0 1 0 0.6699219,-0.7422 c 0,0 -0.5043116,-0.4552 -1.0078125,-1.1015 -0.5035009,-0.6463 -0.9589844,-1.4815 -0.9589844,-2.0762 0,-0.7925 0.032442,-1.0153 0.2226563,-1.4668 0.190214,-0.4515 0.5709332,-1.134 1.2207031,-2.5801 0.7015508,-1.5614 0.537864,-3.0074 -0.013672,-4.0449 -0.1596841,-0.3004 -0.3960335,-0.4913 -0.6054687,-0.7246 l 1.2246094,0 a 0.50005,0.50005 0 1 0 0,-1 l -2.9921876,0 z"
         style="color:#000000;font-style:normal;font-variant:normal;font-weight:normal;font-stretch:normal;font-size:medium;line-height:normal;font-family:sans-serif;text-indent:0;text-align:start;text-decoration:none;text-decoration-line:none;text-decoration-style:solid;text-decoration-color:#000000;letter-spacing:normal;word-spacing:normal;text-transform:none;direction:ltr;block-progression:tb;writing-mode:lr-tb;baseline-shift:baseline;text-anchor:start;white-space:normal;clip-rule:nonzero;display:inline;overflow:visible;visibility:visible;opacity:1;isolation:auto;mix-blend-mode:normal;color-interpolation:sRGB;color-interpolation-filters:linearRGB;solid-color:#000000;solid-opacity:1;fill:#3c3b41;fill-opacity:1;fill-rule:evenodd;stroke:none;stroke-width:1px;stroke-linecap:round;stroke-linejoin:round;stroke-miterlimit:4;stroke-dasharray:none;stroke-dashoffset:0;stroke-opacity:1;color-rendering:auto;image-rendering:auto;shape-rendering:auto;text-rendering:auto;enable-background:accumulate" />
      <path
         sodipodi:nodetypes="ccssssscc"
         inkscape:connector-curvature="0"
         id="path4836"
         d="m 23.99738,1038.5921 c -3,0 -4.994762,-5.7999 -4.994762,-8.035 0.02389,-0.5063 0.124685,-1.2036 0.29629,-1.6751 0.34321,-0.943 0.96966,-1.7828 1.830593,-2.3857 0.860927,-0.6028 1.864405,-0.9043 2.867882,-0.9043 1.003476,0 2.006952,0.3015 2.867877,0.9043 0.86093,0.6029 1.487379,1.4427 1.83059,2.3857 0.171605,0.4715 0.272401,1.1688 0.296292,1.6751 0,2.2351 -1.994762,8.035 -4.994762,8.035 z"
         style="fill:#00a654;fill-opacity:1;stroke:none;stroke-width:0.5;stroke-linecap:round;stroke-linejoin:round;stroke-opacity:1" />
      <path
         id="path4838"
         d="m 25.497379,-1039.592 a 1.5,1.5 0 0 1 -0.75,1.299 1.5,1.5 0 0 1 -1.5,0 1.5,1.5 0 0 1 -0.75,-1.299 l 1.5,0 z"
         style="fill:#00a654;fill-opacity:1;stroke:none;stroke-width:0.5;stroke-linecap:round;stroke-linejoin:round;stroke-opacity:1"
         transform="scale(1,-1)" />
      <path
         inkscape:connector-curvature="0"
         id="path4840"
         d="m 22.513672,1037.5918 a 0.50005,0.50005 0 1 0 0,1 l 1.224609,0 c -0.209435,0.2333 -0.445784,0.4242 -0.605469,0.7246 -0.551535,1.0375 -0.717172,2.4835 -0.01562,4.0449 0.649771,1.4461 1.032442,2.1286 1.222656,2.5801 0.190213,0.4515 0.222656,0.6743 0.222656,1.4668 0,0.5947 -0.457437,1.4299 -0.960938,2.0762 -0.5035,0.6463 -1.005859,1.1015 -1.005859,1.1015 a 0.50005,0.50005 0 1 0 0.669922,0.7422 c 0,0 0.562477,-0.5064 1.125,-1.2285 0.562523,-0.722 1.171875,-1.6597 1.171875,-2.6914 0,-0.8338 -0.06861,-1.3044 -0.300781,-1.8555 -0.232173,-0.551 -0.59492,-1.1827 -1.232422,-2.6015 -0.585727,-1.3036 -0.427591,-2.3874 -0.01367,-3.166 0.413919,-0.7787 1.129458,-1.1934 1.488281,-1.1934 a 0.50005,0.50005 0 0 0 0,-1 l -2.990234,0 z"
         style="color:#000000;font-style:normal;font-variant:normal;font-weight:normal;font-stretch:normal;font-size:medium;line-height:normal;font-family:sans-serif;text-indent:0;text-align:start;text-decoration:none;text-decoration-line:none;text-decoration-style:solid;text-decoration-color:#000000;letter-spacing:normal;word-spacing:normal;text-transform:none;direction:ltr;block-progression:tb;writing-mode:lr-tb;baseline-shift:baseline;text-anchor:start;white-space:normal;clip-rule:nonzero;display:inline;overflow:visible;visibility:visible;opacity:1;isolation:auto;mix-blend-mode:normal;color-interpolation:sRGB;color-interpolation-filters:linearRGB;solid-color:#000000;solid-opacity:1;fill:#3c3b41;fill-opacity:1;fill-rule:evenodd;stroke:none;stroke-width:1px;stroke-linecap:round;stroke-linejoin:round;stroke-miterlimit:4;stroke-dasharray:none;stroke-dashoffset:0;stroke-opacity:1;color-rendering:auto;image-rendering:auto;shape-rendering:auto;text-rendering:auto;enable-background:accumulate" />
      <path
         sodipodi:nodetypes="ccssssscc"
         inkscape:connector-curvature="0"
         id="ellipse4808"
         d="m 15.993014,1037.0401 c -3.594857,0 -5.985152,-6.9499 -5.985152,-9.6282 0.02863,-0.6067 0.149408,-1.4423 0.35504,-2.0072 0.411263,-1.13 1.16193,-2.1364 2.193573,-2.8588 1.031637,-0.7223 2.234091,-1.0836 3.436543,-1.0836 1.202451,0 2.404902,0.3613 3.436537,1.0836 1.03164,0.7224 1.782305,1.7288 2.19357,2.8588 0.205632,0.5649 0.326414,1.4005 0.355042,2.0072 0,2.6783 -2.390295,9.6282 -5.985153,9.6282 z"
         style="fill:#fd0437;fill-opacity:1;stroke:none;stroke-width:0.5;stroke-linecap:round;stroke-linejoin:round;stroke-opacity:1" />
      <path
         id="path4812"
         d="m 17.790443,-1038.2384 a 1.7974288,1.7974288 0 0 1 -0.898714,1.5566 1.7974288,1.7974288 0 0 1 -1.797429,0 1.7974288,1.7974288 0 0 1 -0.898715,-1.5566 l 1.797429,0 z"
         style="fill:#fd0437;fill-opacity:1;stroke:none;stroke-width:0.5;stroke-linecap:round;stroke-linejoin:round;stroke-opacity:1"
         transform="scale(1,-1)" />
      <path
         inkscape:connector-curvature="0"
         id="path4819"
         d="m 14.214844,1035.9414 a 0.50005,0.50005 0 1 0 0,1 l 1.675781,0 c -0.304166,0.3046 -0.62376,0.5905 -0.847656,1.0117 -0.647254,1.2176 -0.842843,2.9163 -0.01367,4.7617 0.777396,1.7302 1.232754,2.543 1.464844,3.0938 0.23209,0.5508 0.27539,0.8411 0.27539,1.7949 0,0.756 -0.562686,1.7688 -1.171875,2.5508 -0.609189,0.782 -1.21875,1.332 -1.21875,1.332 a 0.50005,0.50005 0 1 0 0.669922,0.7422 c 0,0 0.667725,-0.6012 1.335938,-1.459 0.668212,-0.8577 1.384765,-1.9731 1.384765,-3.166 0,-0.995 -0.07946,-1.5332 -0.353515,-2.1836 -0.274051,-0.6504 -0.709485,-1.4124 -1.47461,-3.1152 -0.71335,-1.5877 -0.525262,-2.9222 -0.01563,-3.8809 0.509638,-0.9587 1.386601,-1.4824 1.873047,-1.4824 l 0,-1 -3.583984,0 z"
         style="color:#000000;font-style:normal;font-variant:normal;font-weight:normal;font-stretch:normal;font-size:medium;line-height:normal;font-family:sans-serif;text-indent:0;text-align:start;text-decoration:none;text-decoration-line:none;text-decoration-style:solid;text-decoration-color:#000000;letter-spacing:normal;word-spacing:normal;text-transform:none;direction:ltr;block-progression:tb;writing-mode:lr-tb;baseline-shift:baseline;text-anchor:start;white-space:normal;clip-rule:nonzero;display:inline;overflow:visible;visibility:visible;opacity:1;isolation:auto;mix-blend-mode:normal;color-interpolation:sRGB;color-interpolation-filters:linearRGB;solid-color:#000000;solid-opacity:1;fill:#3c3b41;fill-opacity:1;fill-rule:evenodd;stroke:none;stroke-width:1px;stroke-linecap:round;stroke-linejoin:round;stroke-miterlimit:4;stroke-dasharray:none;stroke-dashoffset:0;stroke-opacity:1;color-rendering:auto;image-rendering:auto;shape-rendering:auto;text-rendering:auto;enable-background:accumulate" />
    </g>
  </g>
</svg>
