<?xml version="1.0" encoding="utf-8"?>
<!-- Generator: Adobe Illustrator 21.1.0, SVG Export Plug-In . SVG Version: 6.00 Build 0)  -->
<svg version="1.0" id="Layer_1" xmlns="http://www.w3.org/2000/svg" xmlns:xlink="http://www.w3.org/1999/xlink" x="0px" y="0px"
	 viewBox="0 0 260 398" enable-background="new 0 0 260 398" xml:space="preserve">
<g>
	<path fill="none" d="M125.8,269.8C125.8,269.8,125.8,269.8,125.8,269.8C125.8,269.8,125.8,269.8,125.8,269.8z"/>
	<path fill="none" d="M125.6,270.6c0,0.1,0,0.1-0.1,0.2C125.5,270.8,125.5,270.7,125.6,270.6z"/>
	<path fill="none" d="M90.8,98.1c0.1-0.1,0.2-0.2,0.3-0.2C91.1,98,91,98,90.8,98.1z"/>
	<path fill="none" d="M125.4,271.4c0,0.1,0,0.1,0,0.2C125.4,271.5,125.4,271.4,125.4,271.4z"/>
	<path fill="none" d="M81.3,114.8c-1.2,1.7-2.4,3.4-3.5,4.7l0,0c-0.1,0.2-0.3,0.3-0.4,0.5c-0.3,0.5-0.5,0.8-0.5,0.8l0,0
		c-1,1.4-1.8,2.7-2.5,3.9c-1.5,2.5-2.3,4.3-2.3,4.3s0,0,1.1,1.6c1.1,1.6,6.8,18,7.3,20.8c0.5,2.7,5.5,8.9,7.3,11.4
		c1.8,2.5,3.1,3.7,3.1,3.7s0.1-0.5,0.1-0.1c1.7-0.4,4.4-1,6-1.9c0.4-0.2,0.8-0.5,1.3-0.7c0.2-0.1,0.5-0.3,0.7-0.4
		c1.7-4.7,3.4-9.4,3.5-11.3c0.2-3.7-0.1-5.7-3-9.8c-4.1-5.7-6.7-12.4-7.5-17.8c-1.8-7.9-2.8-20.7-2.8-20.7S84.1,111,81.3,114.8z"/>
	<path fill="none" d="M148.9,120C148.9,120,148.9,120,148.9,120c-3.2,5.8-7,7.1-7.7,11.5c-0.7,4.4,1,10.3,10.3,21.6
		c1.3,1.6,2.4,3.2,3.4,5c0.9-0.5,1.7-1.1,2.8-1.3c2-0.4,7.1,0.4,10.4,0.4c0.6,0,1.1-0.2,1.6-0.4c2.6-1.3,4.6-5.6,6.9-9.8
		c2.8-5,1.9-5.4,1.9-5.9c0-0.5-4.5-4.5-6-5.9c-2.2-1.2-11.6-9.2-16.5-11.5C153.3,122.4,150.7,121,148.9,120z"/>
	<path d="M134.2,24.2c0,0,1.2,0.8,2.5,2C135.7,25,134.2,24.2,134.2,24.2z"/>
	<path fill="#FCC778" d="M81.3,114.8c-0.9,1.2-2.4,3.3-3.4,4.7c0,0,0,0,0,0C78.9,118.1,80.1,116.4,81.3,114.8
		C81.3,114.8,81.3,114.8,81.3,114.8z"/>
	<path fill="#FCC778" d="M171.8,118.6c-4.1-2.4-12.7-11.3-17.5-16.1c-2.2-2.2-7.9-5.3-12.4-8.2c-0.5-0.3-0.9-0.6-1.3-0.9
		c-4.7-3.2-8.3-6.1-9.5-8c-0.1-0.2-0.3-0.4-0.5-0.7c-1.5-2.6-2.6-4.9-2.5-5.8c0.1-1,0.8-3.9,1.5-7.2c1-4.4,2.2-9.5,2.7-11.8
		c-9.9-4.8-20.4-9.8-28.3-13.6c0.1,1.8,0.1,3.7-0.1,4.7c-0.2,1.6,1.4,9.7,3.7,14.4c0.9,1.7,1.8,3,2.8,3.3c3.6,1,4.3,0.6,4.3,0.6
		s-0.7,3.2-1.3,5.8c0,0,0,0,0,0c-1.5,3.7-6,2.2-8.5,0.9c-3.9-1.9-7.7-3-10.9-1.9c-3.2,1.1-10.3,3.7-13.4,12
		c-3.1,8.2-1.1,6.2-5.8,11.8c-2.3,2.7-7,9.3-10.2,15.2c2.3,0.4,5.4,1.2,7.2,2.3c0.4,0.2,0.8,0.5,1.2,0.7c0.8,0.5,1.5,0.9,2.2,1.4
		c4.3-5.5,12.9-17.3,15.6-19.3c0.1-0.1,0.2-0.2,0.3-0.2c5.2-3.6,15.4-3.3,15.4-3.3s4.3,0.3,11.5,4.8c6.9,4.3,8.6,11.5,8.8,11.8
		c0.3,0.4,2.9-2.4,6.8-4.8c4-2.5,9.4-4.6,9.4-4.6s2.1,1.2,4.1,4.8c4.3,7.6,3.1,11.1,1.8,13.5c1.8,1,4.3,2.4,7.1,3.7
		c4.9,2.3,14.3,10.3,16.5,11.5c-0.3-0.3-0.5-0.4-0.5-0.4s0-2,1.5-4.6c1.5-2.6,6.5-4.5,6.5-4.5C178,123.6,174.5,120.2,171.8,118.6z"
		/>
	<path fill="#D58358" d="M77.5,120c-0.1,0.2-0.2,0.3-0.4,0.5c-0.1,0.1-0.1,0.2-0.2,0.3l0,0C77,120.8,77.2,120.5,77.5,120z"/>
	<path fill="#D88D65" d="M91.2,97.9C91.1,98,91,98,90.8,98.1c-2.7,2.1-11.3,13.8-15.6,19.3c1,0.7,1.9,1.3,2.6,2
		c1-1.4,2.5-3.5,3.4-4.7c0,0,0.1,0,0.1,0c2.7-3.8,8.1-11.2,8.1-11.2s0.9,12.8,2.8,20.7c-0.2-1.2-0.3-2.3-0.3-3.4
		c0-5.9,4.6-13.2,6.6-16.7c2.1-3.4,7.9-9.7,7.9-9.7S96.4,94.3,91.2,97.9z"/>
	<path fill="#D88D65" d="M121.8,318.1c0.1-0.6,1.3-14.6,2.3-20c0.6-12.5,0.6-22.3,1.1-25.9c0-0.2,0.1-0.4,0.1-0.6c0-0.1,0-0.1,0-0.2
		c0-0.2,0.1-0.4,0.1-0.5c0-0.1,0-0.1,0.1-0.2c0.1-0.2,0.1-0.5,0.2-0.8c0,0,0,0,0-0.1c0.8-3.1,2.3-7.8,3.7-12.4c0-0.2,0-0.3,0-0.5
		c1.1-3.1,1.7-6.2,1.4-9c-0.4-2.9-2.3-10-4.4-17.6c-0.7,0.2-1.5,0.4-2.2,0.6c-1.9,6.1-4.7,16.3-4.4,21.6c0.5,7.8,0.1,8.2,0.1,10
		c0,1.8-3,9.5-4.3,16.1c-1.3,6.6-1.4,26.7-1.1,40.5c0.1,2.6,0.1,6,0,8.6c1.8-0.8,3.8-1.2,4.4-1.3
		C120.1,324.4,121.5,321.5,121.8,318.1z"/>
	<path d="M127.8,361.2c-0.6,0.2-2.3,0.5-6.1-1.4c-5-2.5-7-4.1-6.3-9.3c0.7-5.2,2.2-15.1,2.5-19.2c0.4-4.1,1.3-5,1.3-5s-0.1,0-0.2,0
		c-0.6,0.1-2.6,0.6-4.4,1.3c-1.7,0.7-3.3,1.7-3.6,2.9c-0.7,2.9-0.6,7.6-1.9,11c-1.3,3.4-7.8,14.8-7.8,14.8l1.4,0.4l9.1-11.8
		c0,0,1.3,6.5-0.7,10.6c-2,4.1-2.9,6.8,1.4,10.4c4.3,3.6,11.6,8.3,15,8.4c0,0,0,0,0,0c2,0.1,3.2-0.5,3.9-1.2
		c0.5-0.5,0.7-1.1,0.6-1.6c-0.1-0.6-1.2-3.3-2.1-5.4c-0.1-0.2-0.1-0.4-0.2-0.5l0.1,0c0,0,1.3,0.2,2.5,0.2c1.3,0,4.7-0.7,4.5-1.6
		c-0.2-0.9-2-2.9-4.5-4.7c-2.2-1.6-3.1-5.3-3.3-6.1c-1.4,2.7-2.1,4.5-2,5.5C127.2,359.5,127.4,360.2,127.8,361.2z"/>
	<path fill="#FCC778" d="M131.5,373.1c-0.7,0.7-2,1.3-3.9,1.2C128.9,374.9,130.6,374.2,131.5,373.1z"/>
	<path fill="#FCC778" d="M130.1,366.2c0.9,2.1,1.9,4.7,2.1,5.4C132.2,370.8,131.2,368.5,130.1,366.2z"/>
	<path fill="#FCC778" d="M132.4,229.1c-1.9,0.2-3.9,0.6-6,1.1c2.1,7.6,4,14.7,4.4,17.6c0.4,2.9-0.3,5.9-1.4,9c0,0.2,0,0.3,0,0.5
		c-1.4,4.6-2.9,9.3-3.7,12.4c0,0,0,0,0,0.1c-0.1,0.3-0.1,0.5-0.2,0.8c0,0.1,0,0.1-0.1,0.2c0,0.2-0.1,0.4-0.1,0.5c0,0.1,0,0.1,0,0.2
		c0,0.2-0.1,0.4-0.1,0.6c-0.5,3.6-0.5,13.4-1.1,25.9c-1,5.4-2.2,19.4-2.3,20c-0.4,3.4-1.8,6.3-2.9,8.2c0.1,0,0.2,0,0.2,0
		s-0.9,0.9-1.3,5c-0.4,4.1-1.8,14-2.5,19.2c-0.7,5.2,1.3,6.8,6.3,9.3c3.8,1.9,5.5,1.7,6.1,1.4c-0.4-1-0.7-1.7-0.7-2.1
		c0-1,0.7-2.9,2-5.5c1-2,2.4-4.4,4.2-7.4c3.7-6.2,3-16.3,1.3-23.7c0,0,0,0.1,0,0.1s0,0,0-0.1c-0.1-0.6-0.3-1.3-0.5-1.9
		c-0.4-2.4-0.4-7.2,2.3-15c4.2-11.9,9.6-26,9.6-35.2c0-0.4,0-0.8,0-1.2c0.4-2.5,0.8-4.7,1.3-6.5c0.8-2.7,1.7-5.1,2.8-7.5
		c0.5-0.9,0.8-1.4,0.8-1.4s-0.2,0.3-0.6,0.8c1.2-2.7,2.6-5.3,3.8-8c1.2-2.7,0.5-10.9-0.5-18.2C149.2,228.4,139.3,228.4,132.4,229.1z
		"/>
	<path d="M155.4,174.5c-0.3,0.6-1.1,0.4-1.6,0c-0.1-0.1-0.2-0.2-0.3-0.4c-0.8-0.2-0.2-8.5-0.2-8.5l0.1-0.1c0-0.2,0-0.4,0-0.7
		c0.1-0.8-2.2,5.6-3.2,6.9c-0.9,1.3-2.6,1.1-2.6,1.1s0.6-3,1.5-6.5c0.9-3.5,1.5-4.1,0.9-4.1c-0.6,0-5-0.2-6.7-0.4
		c-1.7-0.2-1.5-1.5-1.5-1.5s7.1-0.9,10-1.3c1.3-0.2,2.2-0.6,2.9-1c-1-1.7-2.1-3.4-3.4-5c-9.2-11.3-11-17.1-10.3-21.6
		c0.7-4.5,4.5-5.7,7.6-11.5c0,0,0,0,0,0c1.3-2.3,2.5-5.8-1.8-13.5c-2-3.6-4.1-4.8-4.1-4.8s-5.3,2.1-9.4,4.6
		c-3.9,2.4-6.5,5.2-6.8,4.8c-0.2-0.3-1.9-7.6-8.8-11.8c-7.2-4.5-11.5-4.8-11.5-4.8s-5.9,6.3-7.9,9.7C96.6,107.7,92,115,92,121
		c0,1.1,0.1,2.2,0.3,3.4c0.8,5.5,3.4,12.1,7.5,17.8c2.9,4.1,3.2,6.2,3,9.8c-0.1,1.9-1.9,6.6-3.5,11.3c2.3-1.3,4.8-2.9,6.2-3.5
		c1.8-0.8,6.2-1.3,7.3-1.6c1.1-0.3,1.6-0.5,1.6-0.1c0,0.4-2.6,2.5-3.4,2.8c-0.8,0.3,4,0.5,5.8,1.3c0.9,0.4,2.1,0.7,1.6,1.3
		c-0.5,0.5-2,0.6-2,0.6s-2.3-0.2-3.6-0.2c-1.7,0-3.3,0.2-4.7,0.6c-2.9,0.7-5.2,2.1-5.9,3.8c0,0,0,0,0,0c1.9,0.3,7.4,2.4,8.7,3.5
		c0.7,0.6-1.2,1-4.4,0.4c-3.2-0.5-4.6-0.6-4.6-0.6s-3,1.9-5.6,2.9c0.1,4.5,9.3,35,11.8,42.1c3.3,9.5,2.7,19.3,2.7,19.3
		s6.5-2.9,13.6-4.9c0.7-0.2,1.5-0.4,2.2-0.6c2-0.5,4.1-0.9,6-1.1c6.9-0.8,16.9-0.8,21.5-0.7c1.6,0,2.5,0,2.5,0l1.7-0.7
		c0,0,0.6-19.8,3.4-39.7c0.6-3.9,0.2-11.8-2.3-20C156.2,169.5,155.7,173.8,155.4,174.5z"/>
	<path d="M153.5,174.1c-0.2-0.5-0.3-4.3,0-8.6l-0.1,0.1C153.4,165.7,152.7,173.9,153.5,174.1z"/>
	<path d="M138.1,54.2c0-0.5,0-1.1,0-1.7c0.9,0.2,2.2,0,3.3-0.5c-0.5,0-1.2-0.4-2.3-1.4c-2.4-2-7-4.8-7-4.8s1.6-0.1,5.3,0.2
		c0.9,0.1,1.9,0.2,2.9,0.5c1.2-0.4,2.2-1.2,2.9-2.1c-0.1,0.1-0.2,0.2-0.2,0.2s3.3-3.9-1.6-5.8c-3.4-1.3-6.3,1.3-7.7,3.1
		c0.7-0.3,1.8-0.4,2.9-0.4c2.3,0,4.1,0.7,4.1,1.5s-1.8,1.5-4.1,1.5c-1.9,0-3.5-0.5-4-1.1c0,0,0,0,0,0s-0.1-0.1-0.2-0.4
		c-0.4-1-1-3.6,2-5.5c1.6-1,3.4-1.8,5.1-2.1c-0.1-0.7-0.3-1.4-0.6-2c-0.1-0.3-0.3-0.5-0.5-0.8c-1.4,1.4-4.3,1.5-6.6,4
		c-2.8,3.2-1.6,8.4-1.6,8.4s-5.8-1.8-3.3-7c2.5-5.3,7.3-5.1,8.6-8c1.2-2.8-1.4-5.7-1.4-5.7s0.4,1.9,0.1,3.2c-0.2,0.5-0.3,1-0.5,1.4
		c-5.4-3-13.3-5.5-16.3-5.4c-4.4,0.1-4.5,3.9-10.1,8.3c-1.8,1.4-4.4,3.5-5.9,4.7c1,0.3,2.1,0.6,3.1,0.9
		C112.9,40,126.9,45.8,138.1,54.2z"/>
	<path d="M129.6,71.7c17.2,1.9,31.8,2.4,31.8,2.4s-0.1-0.1-0.4-0.3c-2.8-1.4-15.2-7.3-28.7-13.9C131.8,62.2,130.6,67.3,129.6,71.7z"
		/>
	<path d="M104,51c0.1-1,0.1-2.9,0.1-4.7c-4.3-2-7.9-3.7-10.2-4.8c-13.2-6.1-23.5-10.8-23.5-10.8s11,21.3,37.4,34.7
		C105.4,60.7,103.8,52.6,104,51z"/>
	<path fill="#FF1493" d="M135.6,29.9c-1.2,2.8-6.1,2.7-8.6,8c-2.5,5.3,3.3,7,3.3,7s-1.2-5.3,1.6-8.4c2.2-2.5,5.1-2.6,6.6-4
		c0.4-0.4,0.7-0.8,0.8-1.4c0.4-1.6-1.1-3.5-2.6-4.9c-1.2-1.2-2.5-2-2.5-2S136.8,27.1,135.6,29.9z"/>
	<path fill="#FF1493" d="M137.4,45.9c-3.7-0.3-5.3-0.2-5.3-0.2s4.6,2.8,7,4.8c1.2,1,1.8,1.4,2.3,1.4c0.8,0,1.3-0.8,2.9-1.8
		c2.1-1.3-0.9-2.9-4.2-3.7C139.3,46.2,138.3,46,137.4,45.9z"/>
	<path fill="#FF1493" d="M134.4,37.3c-3,1.9-2.4,4.5-2,5.5c0.1,0.3,0.2,0.4,0.2,0.4s0,0,0,0c0.5,0.6,2.1,1.1,4,1.1
		c2.3,0,4.1-0.7,4.1-1.5s-1.8-1.5-4.1-1.5c-1.1,0-2.2,0.2-2.9,0.4c1.5-1.8,4.4-4.4,7.7-3.1c4.9,1.9,1.6,5.8,1.6,5.8s0.1-0.1,0.2-0.2
		c0.7-0.9,3.3-4.4,1.9-7.3c-0.9-1.8-3.1-2.2-5.6-1.8C137.8,35.6,136,36.3,134.4,37.3z"/>
	<path fill="#FF1493" d="M113.5,59.3c0.6,0-1.1,0.7-2.8,0.5c-1-0.1-1.4-0.6-1.6-0.3c-0.2,0.4-0.1,1.6,1.5,2c1.6,0.4,2.7,0.3,3.7-0.2
		c1.1-0.5,4.4-1.5,4.4-1.5s-0.5-0.3-1.2-0.8c-1.1-0.9-2.8-2.2-3.7-1.9c-1.1,0.3-2.1,0.4-2.7,0.3c-0.7-0.1-1.2-0.2-1.9,0.7
		c-0.7,0.9-0.3,0.6,1,0.9S112.8,59.3,113.5,59.3z"/>
	<path fill="#FF1493" d="M104,46.3c8,3.8,18.5,8.8,28.3,13.6c13.5,6.5,25.9,12.5,28.7,13.9c0.4,0.2,0.6,0.3,0.6,0.3
		s-9.1-8-20.7-17.6c-0.9-0.8-1.9-1.5-2.9-2.3c-11.2-8.4-25.2-14.2-33.5-16.8c-1-0.3-2-0.6-3.1-0.9c-14.6-4-31.2-5.8-31.2-5.8
		s10.3,4.8,23.5,10.8C96.2,42.6,99.7,44.3,104,46.3z"/>
	<path fill="#FF1493" d="M192.3,138.1c-0.6-0.9-5.9-7-7.9-9.1c-2-2-4.4-3.3-4.4-3.3l0,0c0,0-5,1.9-6.5,4.5c-1.5,2.6-1.5,4.6-1.5,4.6
		s0.2,0.2,0.5,0.4c1.5,1.3,6,5.4,6,5.9c0,0.6,0.9,0.9-1.9,5.9c-2.3,4.2-4.4,8.5-6.9,9.8c-0.5,0.3-1,0.4-1.6,0.4
		c-3.3,0-8.4-0.7-10.4-0.4c-1.1,0.2-1.9,0.8-2.8,1.3c-0.8,0.4-1.6,0.8-2.9,1c-3,0.4-10,1.3-10,1.3s-0.2,1.3,1.5,1.5
		c1.7,0.2,6.1,0.4,6.7,0.4c0.6,0,0,0.6-0.9,4.1c-0.9,3.5-1.5,6.5-1.5,6.5s1.7,0.2,2.6-1.1c0.9-1.3,3.2-7.6,3.2-6.9
		c0,0.2,0,0.4,0,0.7c-0.3,4.3-0.1,8.1,0,8.6c0,0.1,0.2,0.3,0.3,0.4c0.5,0.4,1.3,0.6,1.6,0c0.3-0.7,0.9-5,3.8-6.4
		c0.2-0.1,0.4-0.2,0.6-0.2c3.5-1.1,1.8,0,6.8-0.9c5-0.9,5.1-2.8,7.1-4.5c6.1-5.2,13.7-12.5,16.1-17.4
		C192.3,140.2,192.9,139,192.3,138.1z"/>
	<path fill="#FF1493" d="M106.3,172.2c3.2,0.5,5.1,0.1,4.4-0.4c-1.3-1.1-6.8-3.2-8.7-3.5c0,0,0,0,0,0c0.7-1.7,2.9-3.1,5.9-3.8
		c1.4-0.4,3-0.6,4.7-0.6c1.4,0,3.6,0.2,3.6,0.2s1.5-0.1,2-0.6c0.5-0.5-0.6-0.8-1.6-1.3c-1.8-0.8-6.7-1-5.8-1.3
		c0.8-0.3,3.4-2.4,3.4-2.8c0-0.4-0.4-0.2-1.6,0.1c-1.1,0.3-5.5,0.8-7.3,1.6c-1.4,0.6-3.9,2.1-6.2,3.5c-0.2,0.1-0.5,0.3-0.7,0.4
		c-0.4,0.3-0.9,0.5-1.3,0.7c-1.6,0.9-4.3,1.5-6,1.9c-0.1-0.4-0.1,0.1-0.1,0.1s-1.3-1.2-3.1-3.7c-1.8-2.5-6.8-8.7-7.3-11.4
		c-0.5-2.7-6.2-19.2-7.3-20.8c-1.1-1.6-1.1-1.6-1.1-1.6s0.8-1.8,2.3-4.3c0.7-1.2,1.5-2.5,2.5-3.9c0.1-0.1,0.1-0.2,0.2-0.3
		c0.1-0.1,0.2-0.3,0.4-0.5c0.1-0.2,0.2-0.3,0.4-0.5l0,0c0,0,0,0,0,0c-0.7-0.7-1.6-1.4-2.6-2c-0.7-0.5-1.5-0.9-2.2-1.4
		c-0.4-0.2-0.8-0.5-1.2-0.7c-1.8-1.1-4.9-1.9-7.2-2.3c-2.1,3.9-3.8,7.3-4.3,8.7c0,0,0,0,0,0.1c-1.2,3.6-3.6,6-3.6,6s1.3,2.7,3.1,7.1
		c1.8,4.3,6.8,20.3,13,26.2c4.8,4.6,10.2,10,13.9,12.3c0.4,0.8,1.8,2.4,7.5,1.5c0.6-0.1,1.2-0.3,1.9-0.5c2.6-1,5.6-2.9,5.6-2.9
		S103.1,171.6,106.3,172.2z"/>
</g>
</svg>
