<?xml version="1.0" encoding="iso-8859-1"?>
<!-- Generator: Adobe Illustrator 19.0.0, SVG Export Plug-In . SVG Version: 6.00 Build 0)  -->
<svg xmlns="http://www.w3.org/2000/svg" xmlns:xlink="http://www.w3.org/1999/xlink" version="1.1" id="Layer_1" x="0px" y="0px" viewBox="0 0 512.001 512.001" style="enable-background:new 0 0 512.001 512.001;" xml:space="preserve">
<g>
	<path style="fill:#69CBEF;" d="M501.958,103.712c-31.223-31.223-62.446-62.446-93.669-93.669   c-17.364,1.752-34.728,3.505-52.092,5.257c46.835,46.834,93.669,93.669,140.503,140.503   C498.453,138.439,500.206,121.075,501.958,103.712z"/>
	<path style="fill:#69CBEF;" d="M471.544,73.299c-10.947-10.947-21.895-21.895-32.842-32.842   c-12.295,6.822-24.59,13.642-36.885,20.464c16.421,16.421,32.842,32.842,49.263,49.263   C457.902,97.888,464.724,85.594,471.544,73.299z"/>
	<path style="fill:#69CBEF;" d="M373.716,162.899l122.985-7.095L356.199,15.301l-6.959,120.622   C357.031,144.519,365.59,153.95,373.716,162.899z"/>
	<path style="fill:#69CBEF;" d="M366.223,154.645l84.858-44.463L401.818,60.92l-44.162,84.285   C360.488,148.326,363.359,151.49,366.223,154.645z"/>
</g>
<path style="fill:#FAC51C;" d="M378.617,133.384c-84.317-84.316-221.02-84.317-305.337,0s-84.317,221.02,0,305.337  s221.02,84.317,305.337,0S462.933,217.701,378.617,133.384z M350.213,410.318c-33.193,33.192-77.324,51.472-124.265,51.472  s-91.072-18.28-124.264-51.472c-68.52-68.519-68.52-180.01,0-248.531c33.192-33.192,77.323-51.472,124.264-51.472  s91.072,18.281,124.265,51.473C418.734,230.308,418.734,341.797,350.213,410.318z"/>
<g>
	<path style="fill:#231F20;" d="M509.059,96.612l-93.668-93.67c-2.132-2.132-5.118-3.196-8.109-2.89L355.19,5.309   c-3.859,0.39-7.149,2.966-8.451,6.62c-0.325,0.915-0.512,1.856-0.566,2.796l-4.453,77.189   c-34.637-20.738-74.353-31.808-115.771-31.808c-60.353,0-117.093,23.503-159.769,66.178   c-42.676,42.676-66.179,99.417-66.179,159.77S23.504,403.146,66.18,445.822s99.417,66.179,159.769,66.179   s117.093-23.503,159.769-66.179s66.179-99.417,66.179-159.77c0-41.418-11.071-81.133-31.809-115.771c0,0,77.222-4.461,77.24-4.463   c0.923-0.058,1.847-0.237,2.745-0.557c3.653-1.302,6.23-4.592,6.62-8.45l5.256-52.092   C512.252,101.72,511.191,98.744,509.059,96.612z M385.718,126.283c-1.486-1.486-2.994-2.943-4.514-4.383l23.17-44.221   l29.949,29.949l-44.222,23.17C388.662,129.277,387.205,127.77,385.718,126.283z M459.091,75.047l-10.328,18.615l-30.424-30.424   l18.616-10.328L459.091,75.047z M488.835,133.736l-25.3-25.3l10.328-18.616l17.625,17.625L488.835,133.736z M422.182,38.139   l-18.616,10.328l-25.3-25.3l26.291-2.653L422.182,38.139z M364.933,38.238L389.495,62.8l-23.894,45.603   c-1.493-1.179-2.998-2.338-4.516-3.475L364.933,38.238z M371.516,431.62c-38.882,38.883-90.579,60.296-145.568,60.296   S119.264,470.502,80.38,431.62s-60.296-90.579-60.296-145.568S41.498,179.367,80.38,140.485c40.132-40.133,92.85-60.2,145.568-60.2   c52.717,0,105.434,20.066,145.568,60.2C451.783,220.751,451.783,351.355,371.516,431.62z M403.598,146.4l45.603-23.894   l24.562,24.562l-66.691,3.847C405.935,149.397,404.776,147.892,403.598,146.4z"/>
	<path style="fill:#231F20;" d="M314.71,374.813c-23.709,23.709-55.232,36.766-88.76,36.766c-5.546,0-10.042,4.496-10.042,10.042   c0,5.546,4.496,10.042,10.042,10.042c38.893,0,75.46-15.147,102.963-42.649c14.162-14.162,25.045-30.679,32.349-49.09   c2.045-5.156-0.478-10.992-5.633-13.037c-5.153-2.047-10.992,0.478-13.037,5.632C336.304,348.37,326.924,362.6,314.71,374.813z"/>
	<path style="fill:#231F20;" d="M361.28,297.958c0.049,0,0.097,0.001,0.147,0.001c5.479,0,9.96-4.402,10.038-9.9   c0.01-0.668,0.014-1.338,0.014-2.006c0-5.546-4.497-10.042-10.042-10.042c-5.545,0-10.042,4.496-10.042,10.042   c0,0.574-0.004,1.149-0.012,1.721C351.303,293.319,355.734,297.879,361.28,297.958z"/>
	<path style="fill:#231F20;" d="M225.948,100.273c-49.623,0-96.277,19.324-131.365,54.413   c-35.036,35.036-54.331,81.69-54.331,131.366c0,49.677,19.295,96.33,54.332,131.366c35.088,35.089,81.742,54.414,131.365,54.414   s96.277-19.324,131.366-54.413c35.036-35.036,54.332-81.69,54.332-131.366s-19.296-96.33-54.332-131.366   C322.224,119.597,275.571,100.273,225.948,100.273z M343.113,403.217c-31.296,31.296-72.906,48.532-117.164,48.532   c-44.259,0-85.868-17.235-117.164-48.532c-31.243-31.242-48.449-72.852-48.449-117.165c0-44.312,17.206-85.921,48.449-117.164   c31.295-31.296,72.905-48.532,117.164-48.532c44.258,0,85.868,17.235,117.165,48.532c31.242,31.242,48.449,72.852,48.449,117.164   C391.562,330.365,374.355,371.974,343.113,403.217z"/>
</g>
<g>
</g>
<g>
</g>
<g>
</g>
<g>
</g>
<g>
</g>
<g>
</g>
<g>
</g>
<g>
</g>
<g>
</g>
<g>
</g>
<g>
</g>
<g>
</g>
<g>
</g>
<g>
</g>
<g>
</g>
</svg>
